<svg width="542" height="379" xmlns="http://www.w3.org/2000/svg"><path d="M271.719 374.344c0-9.937.001-19.875-.001-29.813-.003-12.323-.016-24.643-.015-36.965 0-5.724.076-5.804 5.731-5.805 49.731-.004 99.462.066 149.192-.038 21.364-.043 37.99-16.867 37.809-37.711-.176-20.35-17.403-36.706-37.337-36.756-38.19-.095-76.38-.038-114.569-.043-12.136 0-24.273-.092-36.405.073-3.472.047-4.492-1.187-4.475-4.544.109-22.274.113-44.548-.013-66.821-.018-3.41.966-4.364 4.462-4.354 41.64.13 83.28.12 124.92.065 13.299-.018 24.667-4.405 33.017-15.213 9.842-12.735 9.949-31.842-.196-44.642-8.273-10.435-19.1-14.916-32.386-14.747-21.027.27-42.06.072-63.087.072-20.316 0-40.632.001-60.947-.002-5.654 0-5.713-.057-5.714-5.802-.003-21.682-.007-43.363.004-65.045.004-5.152.036-5.174 5.157-5.172 43.423.003 86.853-.257 130.272.14 20.853.188 40.212 6.238 57.931 17.51 13.344 8.488 24.472 19.11 33.366 32.084 13.932 20.32 20.321 42.886 19.54 67.396-.595 18.674-5.684 36.204-14.906 52.48-3.443 6.077-3.548 5.943 1.423 10.734 25.932 24.99 38.442 55.356 36.266 91.34-1.085 17.91-6.733 34.529-16.005 49.937-10.845 18.02-25.73 31.862-44.21 41.743-13.97 7.471-28.915 12.197-44.912 12.74-44.951 1.528-89.92.393-134.88.628-36.523.191-73.05-.01-109.574.108-3.79.013-6.084-1.006-7.786-4.566-7.408-15.496-15.056-30.877-22.654-46.282-4.77-9.67-9.65-19.288-14.403-28.967-7.364-14.994-14.6-30.05-22.007-45.023-9.823-19.855-19.823-39.622-29.63-59.485-7.498-15.19-14.76-30.492-22.22-45.7-7.875-16.05-15.887-32.032-23.788-48.07-6.544-13.282-12.973-26.624-19.53-39.9-6.452-13.065-13.025-26.068-19.5-39.12C6.869 15.181 4.215 9.49 1.442 3.855.55 2.044.977 1.166 3.012 1.121c1.071-.025 2.142-.043 3.212-.043 25.342 0 50.684.052 76.025-.063C85.4 1 87.3 1.91 88.661 4.785c4.262 8.99 8.706 17.897 13.106 26.821 6.916 14.023 13.876 28.025 20.781 42.052 13.031 26.47 26.022 52.957 39.06 79.422 6.965 14.135 14.033 28.221 20.979 42.365 7.521 15.317 14.891 30.708 22.438 46.012 10.532 21.355 21.204 42.643 31.742 63.995 6.711 13.6 13.01 27.41 20.022 40.852 4.865 9.329 8.779 19.134 14.93 28.04" stroke="#979797" fill="none"/></svg>