<svg width="992" height="693" xmlns="http://www.w3.org/2000/svg"><path d="M497.318 685.3c0-18.215.003-36.43-.003-54.646-.005-22.585-.028-45.168-.026-67.753 0-10.49.14-10.636 10.507-10.639 91.173-.008 182.346.12 273.519-.07 39.167-.078 69.648-30.915 69.316-69.12-.323-37.3-31.906-67.278-68.452-67.37-70.014-.174-140.03-.07-210.042-.078-22.25 0-44.5-.17-66.743.133-6.365.087-8.236-2.175-8.204-8.327.199-40.827.207-81.653-.024-122.477-.034-6.248 1.771-7.999 8.181-7.98 76.338.24 152.68.219 229.018.12 24.383-.034 45.224-8.075 60.532-27.884 18.044-23.342 18.24-58.364-.359-81.825-15.167-19.126-35.015-27.339-59.374-27.029-38.549.494-77.109.13-115.66.13-37.245 0-74.492.004-111.737-.002-10.365 0-10.472-.104-10.475-10.634-.005-39.74-.013-79.48.008-119.22.008-9.445.065-9.484 9.454-9.481 79.61.005 159.23-.47 238.833.256 38.23.346 73.722 11.434 106.207 32.097 24.463 15.556 44.864 35.024 61.171 58.804 25.54 37.244 37.255 78.606 35.822 123.53-1.09 34.227-10.42 66.358-27.327 96.19-6.313 11.138-6.504 10.893 2.61 19.674 47.541 45.804 70.475 101.462 66.486 167.418-1.989 32.825-12.344 63.286-29.342 91.527-19.882 33.029-47.172 58.4-81.05 76.511-25.615 13.694-53.012 22.356-82.34 23.352-82.411 2.8-164.853.72-247.282 1.15-66.958.35-133.924-.018-200.884.199-6.947.023-11.154-1.844-14.274-8.37-13.583-28.402-27.602-56.594-41.533-84.83-8.744-17.725-17.69-35.353-26.405-53.093-13.501-27.482-26.766-55.08-40.346-82.522-18.01-36.391-36.343-72.624-54.321-109.03-13.748-27.84-27.063-55.888-40.74-83.762-14.436-29.417-29.123-58.713-43.61-88.107-11.997-24.346-23.782-48.8-35.806-73.135-11.827-23.944-23.877-47.78-35.749-71.703-5.116-10.31-9.98-20.743-15.065-31.069-1.634-3.32-.85-4.93 2.88-5.014 1.964-.044 3.926-.078 5.888-.078 46.46 0 92.92.096 139.38-.115 5.776-.028 9.258 1.638 11.754 6.908 7.814 16.48 15.96 32.804 24.03 49.162 12.678 25.703 25.437 51.366 38.098 77.077 23.89 48.515 47.707 97.064 71.61 145.57 12.767 25.91 25.726 51.727 38.46 77.652 13.79 28.074 27.3 56.284 41.137 84.335 19.309 39.14 38.874 78.16 58.193 117.295 12.304 24.928 23.85 50.24 36.708 74.878 8.92 17.098 16.094 35.071 27.371 51.395" stroke="#979797" fill="none" opacity=".655"/></svg>