<svg width="18" height="13" xmlns="http://www.w3.org/2000/svg"><path d="M15.743.259c.942.108 1.725.84 1.945 1.832.314 1.413.312 2.955.312 4.41 0 1.454-.002 2.995-.315 4.408-.22.992-1.003 1.723-1.946 1.832-1.953.227-3.926.256-5.896.259h-.844c-2.25.001-4.509 0-6.74-.259-.943-.109-1.726-.84-1.946-1.832C.035 9.653.003 8.295 0 6.988V6.5c0-1.454.004-2.996.317-4.409C.537 1.1 1.32.367 2.262.26 4.215.032 6.19.003 8.16 0h.844c2.248 0 4.506 0 6.739.26zM7.38 3.824v5.96l4.981-2.98-4.981-2.98z" fill-rule="evenodd"/></svg>