<svg width="17" height="14" xmlns="http://www.w3.org/2000/svg"><path d="M17 1.657a6.868 6.868 0 01-2.003.557A3.533 3.533 0 0016.53.258c-.674.405-1.42.7-2.214.858A3.462 3.462 0 0011.77 0C9.844 0 8.282 1.582 8.282 3.534c0 .277.031.547.09.806C5.475 4.192 2.905 2.785 1.185.647a3.552 3.552 0 00-.472 1.777c0 1.226.615 2.308 1.551 2.942a3.443 3.443 0 01-1.58-.443v.045c0 1.712 1.202 3.14 2.798 3.466a3.463 3.463 0 01-1.575.06c.444 1.404 1.732 2.426 3.258 2.454A6.938 6.938 0 010 12.412 9.775 9.775 0 005.346 14c6.416 0 9.924-5.385 9.924-10.056 0-.153-.003-.306-.01-.458A7.117 7.117 0 0017 1.657z" fill-rule="evenodd"/></svg>