<svg width="43" height="30" xmlns="http://www.w3.org/2000/svg"><path d="M21.557 29.71v-2.373l-.001-2.942c0-.455.006-.462.456-.462 3.96 0 7.92.005 11.88-.003 1.702-.003 3.026-1.342 3.011-3-.014-1.62-1.386-2.922-2.973-2.926-3.041-.007-6.082-.003-9.123-.003-.966 0-1.933-.007-2.899.006-.276.004-.358-.095-.356-.362.008-1.772.009-3.545-.001-5.317-.002-.271.077-.347.355-.347 3.316.01 6.632.01 9.947.006 1.06-.002 1.964-.35 2.63-1.21.783-1.014.792-2.535-.016-3.553-.659-.83-1.521-1.187-2.58-1.174-1.673.022-3.348.006-5.023.006h-4.853c-.45 0-.455-.005-.455-.462V.418c0-.41.003-.412.411-.412 3.458 0 6.916-.02 10.374.012 1.66.015 3.202.496 4.613 1.393a9.093 9.093 0 012.657 2.553c1.109 1.617 1.618 3.413 1.556 5.363a8.946 8.946 0 01-1.187 4.176c-.275.484-.283.473.113.854 2.065 1.989 3.061 4.405 2.888 7.269-.087 1.425-.536 2.748-1.275 3.974-.863 1.434-2.049 2.535-3.52 3.321-1.113.595-2.303.97-3.577 1.014-3.579.122-7.16.031-10.74.05-2.908.015-5.817 0-8.725.009-.302 0-.485-.08-.62-.364-.59-1.233-1.2-2.457-1.804-3.683-.38-.77-.769-1.534-1.147-2.305-.587-1.193-1.163-2.39-1.752-3.582-.783-1.58-1.58-3.153-2.36-4.734-.597-1.209-1.175-2.426-1.77-3.636-.626-1.278-1.264-2.55-1.894-3.826-.52-1.057-1.033-2.118-1.555-3.175C1.73 3.65 1.205 2.615.69 1.576.467 1.13.256.676.035.227-.035.083-.002.013.16.01.246.008.33.006.416.006 2.434.006 4.452.01 6.47.001c.25-.001.402.071.51.3.34.716.694 1.424 1.044 2.135.55 1.115 1.105 2.23 1.655 3.346 1.038 2.106 2.072 4.214 3.11 6.32.555 1.125 1.118 2.246 1.67 3.371.6 1.219 1.186 2.444 1.787 3.662.84 1.699 1.689 3.393 2.528 5.092.534 1.082 1.036 2.181 1.594 3.25.388.743.7 1.523 1.19 2.232" fill="#231F20" fill-rule="evenodd"/></svg>