<svg width="98" height="11" xmlns="http://www.w3.org/2000/svg"><g fill="none" fill-rule="evenodd"><path d="M97 9.5H70m27-8H70" stroke="#000" stroke-linecap="round" stroke-linejoin="round" stroke-width="2"/><path d="M1.883 10.85V5.717l-.106-2.88h.03L4.55 10.85h1.702l2.757-8.015h.03l-.09 2.88v5.135h1.867V1H7.893L6.116 6.388l-.648 2.209h-.03l-.633-2.224L3.013 1H0v9.85h1.883zm21.4 0V9.195h-5.589V6.687h4.233V5.104h-4.233V2.657h5.378V1h-7.457v9.85h7.667zm5.944 0v-5.7l-.06-1.702h.015l.859 1.612 3.48 5.79h2.38V1h-1.869v5.701l.06 1.702h-.03l-.858-1.627L29.724 1H27.36v9.85h1.868zm15.525.15c1.386 0 2.44-.336 3.163-1.007C48.638 9.32 49 8.313 49 6.97V1h-2.094v5.88c0 .826-.175 1.438-.527 1.836-.351.398-.894.597-1.627.597s-1.278-.199-1.634-.597c-.357-.398-.535-1.01-.535-1.835V1h-2.079v5.97c0 1.343.362 2.35 1.085 3.023.723.671 1.777 1.007 3.163 1.007z" fill="#000" fill-rule="nonzero"/></g></svg>