<svg width="17" height="18" xmlns="http://www.w3.org/2000/svg"><path d="M16.553 3.102a4.433 4.433 0 00-.978-1.593A4.138 4.138 0 0014.07.473C13.532.25 12.908.097 12.008.056 11.1.014 10.812 0 8.5 0 6.188 0 5.899.007 4.992.056 4.086.097 3.468.25 2.93.473a4.138 4.138 0 00-1.505 1.036 4.433 4.433 0 00-.978 1.593c-.21.57-.355 1.231-.394 2.184C.013 6.246 0 6.552 0 9s.007 2.754.053 3.714c.039.96.183 1.614.394 2.184.216.591.505 1.092.978 1.593.473.5.946.807 1.505 1.036.538.223 1.162.376 2.062.417C5.9 17.986 6.188 18 8.5 18c2.312 0 2.601-.007 3.508-.056.906-.041 1.524-.194 2.062-.417a4.138 4.138 0 001.505-1.036 4.424 4.424 0 00.978-1.593c.21-.57.355-1.231.394-2.184.04-.96.053-1.266.053-3.714s-.007-2.754-.053-3.714c-.039-.96-.183-1.614-.394-2.184zm-1.136 9.536c-.04.876-.177 1.356-.296 1.669a2.809 2.809 0 01-.637 1.036 2.652 2.652 0 01-.979.675c-.302.125-.748.271-1.576.313-.9.041-1.163.055-3.436.055-2.272 0-2.542-.007-3.435-.055-.828-.042-1.281-.188-1.577-.313a2.624 2.624 0 01-.978-.675 2.839 2.839 0 01-.637-1.036c-.119-.32-.257-.793-.296-1.67-.04-.952-.053-1.237-.053-3.637s.007-2.692.053-3.638c.04-.876.177-1.356.296-1.669a2.79 2.79 0 01.637-1.036c.295-.313.578-.508.978-.675.303-.125.75-.271 1.577-.313.9-.041 1.17-.055 3.435-.055 2.267 0 2.543.007 3.436.055.828.042 1.28.188 1.576.313.395.16.684.362.98.675.295.313.479.612.636 1.036.119.32.257.793.296 1.67.04.952.052 1.237.052 3.637s-.013 2.692-.052 3.638z"/><path d="M8.5 5A4.502 4.502 0 004 9.5C4 11.983 6.017 14 8.5 14S13 11.983 13 9.5 10.983 5 8.5 5zm0 7.423A2.924 2.924 0 1111.423 9.5 2.928 2.928 0 018.5 12.423z"/><circle cx="13" cy="4" r="1"/></svg>