<?xml version="1.0" encoding="UTF-8"?>
<svg width="42px" height="42px" viewBox="0 0 42 42" version="1.1" xmlns="http://www.w3.org/2000/svg" xmlns:xlink="http://www.w3.org/1999/xlink">
    <title>73122BA2-6BB3-4669-B907-50A001A4B859@3x</title>
    <g id="Page-1" stroke="none" stroke-width="1" fill="none" fill-rule="evenodd">
        <g id="01---main-landing" transform="translate(-262.000000, -9064.000000)">
            <g id="footer" transform="translate(0.000000, 8430.000000)">
                <g id="ic_sq_twitter" transform="translate(263.000000, 635.000000)">
                    <rect id="Rectangle-Copy-19" stroke="#000000" fill="#000000" x="0" y="0" width="40" height="40"></rect>
                    <path d="M29,15.6572413 C28.3750482,15.9387521 27.7024745,16.1286407 26.9967724,16.2136184 C27.7173132,15.77649 28.2697968,15.0840785 28.5303372,14.2580806 C27.8563831,14.6633861 27.1103059,14.9574861 26.3155715,15.1162512 C25.679577,14.429435 24.7730345,14 23.7698679,14 C21.8439397,14 20.2824229,15.582405 20.2824229,17.5344457 C20.2824229,17.8110606 20.3131356,18.0806814 20.3728356,18.3398112 C17.4741084,18.1922366 14.9039035,16.7853824 13.183647,14.6469501 C12.8834216,15.1687066 12.7115685,15.7757906 12.7115685,16.4241395 C12.7115685,17.6501973 13.327203,18.7321776 14.2630778,19.365839 C13.6916144,19.3473048 13.1536244,19.18819 12.6832714,18.9234651 C12.6829263,18.9381526 12.6829263,18.9531898 12.6829263,18.968227 C12.6829263,20.6803717 13.885208,22.1085577 15.4808883,22.4337813 C15.1882549,22.5142129 14.8800926,22.5575761 14.5619227,22.5575761 C14.3369263,22.5575761 14.1184865,22.5355448 13.9055681,22.4939302 C14.3496945,23.8979867 15.6375576,24.9201679 17.1635304,24.9484938 C15.969876,25.8965379 14.4663338,26.4616576 12.8320037,26.4616576 C12.5507582,26.4616576 12.2729635,26.4448719 12,26.4119998 C13.5439173,27.415297 15.3770172,28 17.3464263,28 C23.7619309,28 27.2697359,22.6145776 27.2697359,17.9439476 C27.2697359,17.7907778 27.2666301,17.6379577 27.2600735,17.4861867 C27.9412744,16.9889094 28.5327528,16.3660888 29,15.6572413 Z" id="Path" fill="#FFFFFF"></path>
                </g>
            </g>
        </g>
    </g>
</svg>