<?xml version="1.0" encoding="UTF-8"?>
<svg width="42px" height="42px" viewBox="0 0 42 42" version="1.1" xmlns="http://www.w3.org/2000/svg" xmlns:xlink="http://www.w3.org/1999/xlink">
    <title>1D15A58C-EFEE-4B3C-B4F5-E5A5D9C4DB52@3x</title>
    <g id="Page-1" stroke="none" stroke-width="1" fill="none" fill-rule="evenodd">
        <g id="01---main-landing" transform="translate(-134.000000, -9064.000000)">
            <g id="footer" transform="translate(0.000000, 8430.000000)">
                <g id="ic_sq_fb" transform="translate(135.000000, 635.000000)">
                    <rect id="Rectangle" stroke="#000000" fill="#000000" x="0" y="0" width="40" height="40"></rect>
                    <path d="M24,16.8284827 L21.2754811,16.8284827 L21.2754811,14.9602981 C21.2754811,14.2587042 21.7202423,14.0951356 22.0334996,14.0951356 C22.3460442,14.0951356 23.9561654,14.0951356 23.9561654,14.0951356 L23.9561654,11.0108052 L21.308268,11 C18.3688525,11 17.6999287,13.3003933 17.6999287,14.7725109 L17.6999287,16.8284827 L16,16.8284827 L16,20.0067067 L17.6999287,20.0067067 C17.6999287,24.0854895 17.6999287,29 17.6999287,29 L21.2754811,29 C21.2754811,29 21.2754811,24.0370524 21.2754811,20.0067067 L23.6881682,20.0067067 L24,16.8284827 Z" id="Shape-Copy-2" fill="#FFFFFF" fill-rule="nonzero"></path>
                </g>
            </g>
        </g>
    </g>
</svg>