<?xml version="1.0" encoding="UTF-8"?>
<svg width="42px" height="42px" viewBox="0 0 42 42" version="1.1" xmlns="http://www.w3.org/2000/svg" xmlns:xlink="http://www.w3.org/1999/xlink">
    <title>7E359A37-9068-49EA-9F6B-1B3DCC7DB3EF@3x</title>
    <g id="Page-1" stroke="none" stroke-width="1" fill="none" fill-rule="evenodd">
        <g id="01---main-landing" transform="translate(-198.000000, -9064.000000)">
            <g id="footer" transform="translate(0.000000, 8430.000000)">
                <g id="ic_sq_instagram" transform="translate(199.000000, 635.000000)">
                    <rect id="Rectangle-Copy-18" stroke="#000000" fill="#000000" x="0" y="0" width="40" height="40"></rect>
                    <path d="M28.5270479,14.1020093 C28.297527,13.5108192 27.9914992,13.0100464 27.4907264,12.5092736 C26.9899536,12.0085008 26.4891808,11.702473 25.8979907,11.4729521 C25.3276662,11.2503864 24.6669243,11.0973725 23.7140649,11.0556414 C22.7542504,11.0139104 22.4482226,11 20,11 C17.5517774,11 17.2457496,11.0069552 16.2859351,11.0556414 C15.3261206,11.0973725 14.6723338,11.2503864 14.1020093,11.4729521 C13.5108192,11.702473 13.0100464,12.0085008 12.5092736,12.5092736 C12.0085008,13.0100464 11.702473,13.5108192 11.4729521,14.1020093 C11.2503864,14.6723338 11.0973725,15.3330757 11.0556414,16.2859351 C11.0139104,17.2457496 11,17.5517774 11,20 C11,22.4482226 11.0069552,22.7542504 11.0556414,23.7140649 C11.0973725,24.6738794 11.2503864,25.3276662 11.4729521,25.8979907 C11.702473,26.4891808 12.0085008,26.9899536 12.5092736,27.4907264 C13.0100464,27.9914992 13.5108192,28.297527 14.1020093,28.5270479 C14.6723338,28.7496136 15.3330757,28.9026275 16.2859351,28.9443586 C17.2457496,28.9860896 17.5517774,29 20,29 C22.4482226,29 22.7542504,28.9930448 23.7140649,28.9443586 C24.6738794,28.9026275 25.3276662,28.7496136 25.8979907,28.5270479 C26.4891808,28.297527 26.9899536,27.9914992 27.4907264,27.4907264 C27.9914992,26.9899536 28.297527,26.4891808 28.5270479,25.8979907 C28.7496136,25.3276662 28.9026275,24.6669243 28.9443586,23.7140649 C28.9860896,22.7542504 29,22.4482226 29,20 C29,17.5517774 28.9930448,17.2457496 28.9443586,16.2859351 C28.9026275,15.3261206 28.7496136,14.6723338 28.5270479,14.1020093 Z M27.3238022,23.637558 C27.2820711,24.5139104 27.1360124,24.9938176 27.0108192,25.3068006 C26.8508501,25.7241113 26.6491499,26.0301391 26.3361669,26.3431221 C26.0231839,26.6561051 25.7241113,26.8508501 25.2998454,27.0177743 C24.9799073,27.1429675 24.5069552,27.2890263 23.6306028,27.3307573 C22.6777434,27.3724884 22.3995363,27.3863988 19.9930448,27.3863988 C17.5865533,27.3863988 17.301391,27.3794436 16.3554869,27.3307573 C15.4791345,27.2890263 14.9992272,27.1429675 14.6862442,27.0177743 C14.2689335,26.8578053 13.9629057,26.6561051 13.6499227,26.3431221 C13.3369397,26.0301391 13.1421947,25.7310665 12.9752705,25.3068006 C12.8500773,24.9868624 12.7040185,24.5139104 12.6622875,23.637558 C12.6205564,22.6846986 12.6066461,22.3995363 12.6066461,20 C12.6066461,17.6004637 12.6136012,17.3083462 12.6622875,16.362442 C12.7040185,15.4860896 12.8500773,15.0061824 12.9752705,14.6931994 C13.1352396,14.2758887 13.3369397,13.9698609 13.6499227,13.6568779 C13.9629057,13.3438949 14.2619784,13.1491499 14.6862442,12.9822257 C15.0061824,12.8570325 15.4791345,12.7109737 16.3554869,12.6692427 C17.3083462,12.6275116 17.5935085,12.6136012 19.9930448,12.6136012 C22.3925811,12.6136012 22.6846986,12.6205564 23.6306028,12.6692427 C24.5069552,12.7109737 24.9868624,12.8570325 25.2998454,12.9822257 C25.7171561,13.1421947 26.0231839,13.3438949 26.3361669,13.6568779 C26.6491499,13.9698609 26.8438949,14.2689335 27.0108192,14.6931994 C27.1360124,15.0131376 27.2820711,15.4860896 27.3238022,16.362442 C27.3655332,17.3153014 27.3794436,17.6004637 27.3794436,20 C27.3794436,22.3995363 27.3655332,22.6916538 27.3238022,23.637558 Z" id="XMLID_142_" fill="#FFFFFF" fill-rule="nonzero"></path>
                    <path d="M20.5,16 C18.0165414,16 16,18.0165414 16,20.5 C16,22.9834586 18.0165414,25 20.5,25 C22.9834586,25 25,22.9834586 25,20.5 C25,18.0165414 22.9834586,16 20.5,16 Z M20.5,23.4233083 C18.8894737,23.4233083 17.5766917,22.1172932 17.5766917,20.5 C17.5766917,18.8894737 18.8827068,17.5766917 20.5,17.5766917 C22.1172932,17.5766917 23.4233083,18.8827068 23.4233083,20.5 C23.4233083,22.1105263 22.1105263,23.4233083 20.5,23.4233083 Z" id="XMLID_145_" fill="#FFFFFF" fill-rule="nonzero"></path>
                    <circle id="XMLID_143_" fill="#FFFFFF" fill-rule="nonzero" cx="25" cy="15" r="1"></circle>
                </g>
            </g>
        </g>
    </g>
</svg>