<?xml version="1.0" encoding="UTF-8"?>
<svg width="42px" height="42px" viewBox="0 0 42 42" version="1.1" xmlns="http://www.w3.org/2000/svg" xmlns:xlink="http://www.w3.org/1999/xlink">
    <title>8CF1C6DB-59BA-4282-A5A0-39F01B403985@3x</title>
    <g id="Page-1" stroke="none" stroke-width="1" fill="none" fill-rule="evenodd">
        <g id="01---main-landing" transform="translate(-326.000000, -9064.000000)">
            <g id="footer" transform="translate(0.000000, 8430.000000)">
                <g id="ic_sq_youtube" transform="translate(327.000000, 635.000000)">
                    <rect id="Rectangle-Copy-20" stroke="#000000" fill="#000000" x="0" y="0" width="40" height="40"></rect>
                    <path d="M26.7427997,14.2585766 C27.6852784,14.3674672 28.4683718,15.0991096 28.6884555,16.0911055 C29.001858,17.5039028 29,19.0457002 29,20.500214 C29,21.9545137 28.9981418,23.4960972 28.6849457,24.9088945 C28.4646555,25.9008904 27.6815621,26.6323189 26.7392899,26.7414234 C24.7862791,26.967548 22.8125612,26.9967964 20.8427556,26.9997153 L19.9988645,26.9998515 C17.7497161,27.0011352 15.4904513,26.9998515 13.2586454,26.7414234 C12.3161668,26.6323189 11.5334862,25.9008904 11.3134026,24.9088945 C11.0348225,23.6530746 11.0038692,22.2954979 11.0004299,20.9879169 L11,20.500214 C11,19.0457002 11.0037162,17.5039028 11.3169123,16.0911055 C11.5372025,15.0991096 12.319883,14.3674672 13.2621552,14.2585766 C15.215166,14.032452 17.1888839,14.0032036 19.1586896,14.0002847 L20.0025807,14.0001485 C22.251729,13.9988648 24.5109938,14.0001485 26.7427997,14.2585766 Z M18.3799323,17.8235294 L18.3799323,23.7838219 L23.3613866,20.8036756 L18.3799323,17.8235294 Z" id="Combined-Shape" fill="#FFFFFF"></path>
                </g>
            </g>
        </g>
    </g>
</svg>