<?xml version="1.0" encoding="UTF-8"?>
<svg width="542px" height="379px" viewBox="0 0 542 379" version="1.1" xmlns="http://www.w3.org/2000/svg" xmlns:xlink="http://www.w3.org/1999/xlink">
    <title>CFA77421-3914-46CB-A25A-1D6FB272DBF7@3x</title>
    <g id="Page-1" stroke="none" stroke-width="1" fill="none" fill-rule="evenodd">
        <g id="01---main-landing" transform="translate(-899.000000, -6258.000000)" stroke="#979797">
            <g id="des_el_logo" transform="translate(900.000000, 6259.000000)">
                <path d="M270.718973,373.344499 C270.718973,363.406511 270.720402,353.468522 270.717544,343.530534 C270.714687,331.208397 270.701827,318.887682 270.703256,306.565545 C270.703256,300.842163 270.778984,300.762454 276.434323,300.761031 C326.165012,300.756761 375.8957,300.826506 425.626389,300.7226 C446.990367,300.679899 463.616319,283.855633 463.434857,263.011763 C463.25911,242.661803 446.031617,226.305827 426.097905,226.256009 C387.907937,226.160643 349.717969,226.217578 311.529429,226.213308 C299.392884,226.213308 287.256338,226.120789 275.124079,226.2859 C271.652004,226.332872 270.631814,225.098807 270.64896,221.742495 C270.757552,199.468135 270.761838,177.193775 270.636101,154.920839 C270.617526,151.511861 271.601995,150.556778 275.09836,150.566742 C316.737542,150.697692 358.378153,150.686305 400.017334,150.632217 C413.316954,150.613713 424.684785,146.226879 433.034911,135.41921 C442.876743,122.684294 442.983906,103.576939 432.83916,90.7765477 C424.566191,80.3418024 413.73989,75.8610251 400.45313,76.0304064 C379.426357,76.2994239 358.39387,76.1015751 337.365669,76.1015751 C317.050457,76.1015751 296.733817,76.1029984 276.418606,76.1001517 C270.764696,76.1001517 270.706114,76.0432168 270.704685,70.2984845 C270.701827,48.616248 270.697541,26.9354348 270.708971,5.25319822 C270.713258,0.100588996 270.744692,0.0792384053 275.865646,0.080661778 C319.289446,0.0835085234 362.718961,-0.175545311 406.138474,0.220152304 C426.990928,0.409460875 446.350247,6.45879491 464.069261,17.7319068 C477.413174,26.2194783 488.54096,36.8406855 497.435474,49.8147278 C511.366639,70.1347966 517.7564,92.7009477 516.974826,117.211426 C516.38043,135.884652 511.290911,153.414911 502.069194,169.691178 C498.625695,175.767556 498.52139,175.633759 503.492316,180.424831 C529.424287,205.414986 541.933759,235.78122 539.75764,271.765505 C538.673152,289.674381 533.024958,306.293681 523.753231,321.70169 C512.908355,339.721589 498.022726,353.563888 479.543571,363.444942 C465.572398,370.916225 450.628187,375.641823 434.630922,376.185551 C389.679695,377.71283 344.711322,376.578402 299.750093,376.813258 C263.227578,377.00399 226.700777,376.803295 190.176833,376.921435 C186.387556,376.934245 184.092843,375.91511 182.391098,372.355255 C174.982576,356.858996 167.335437,341.478031 159.73688,326.072868 C154.96742,316.402474 150.08794,306.784744 145.334198,297.10581 C137.96997,282.112001 130.734337,267.055565 123.327243,252.083107 C113.503985,232.228481 103.503552,212.460681 93.6974403,192.597515 C86.1989013,177.408705 78.9361203,162.106025 71.4761599,146.89871 C63.6018365,130.84876 55.5903448,114.865708 47.6888735,98.8285672 C41.1447979,85.545653 34.7164581,72.2043806 28.158094,58.9271599 C21.7068928,45.8634451 15.1342404,32.859512 8.65874895,19.8071842 C5.86822935,14.1820153 3.21487815,8.48994777 0.441504608,2.85623857 C-0.450089978,1.04428511 -0.0228675723,0.166064141 2.011797,0.120516214 C3.08342511,0.0963188778 4.15362438,0.0778150325 5.22382365,0.0778150325 C30.5656852,0.0778150325 55.9075467,0.130479823 81.2494082,0.0151866331 C84.3999949,0 86.2989199,0.909064698 87.660602,3.78427758 C91.9228242,12.775723 96.3665088,21.6817661 100.767328,30.606313 C107.682902,44.629381 114.642769,58.6310984 121.54834,72.6584365 C134.579338,99.1274755 147.570329,125.615018 160.608471,152.079787 C167.572625,166.215302 174.641084,180.300998 181.586663,194.445053 C189.108063,209.761966 196.478007,225.152896 204.025126,240.456999 C214.557087,261.81186 225.229074,283.099822 235.766751,304.451836 C242.478,318.052163 248.776316,331.861725 255.78905,345.304056 C260.654242,354.632841 264.567828,364.438456 270.718973,373.344499" id="Fill-1"></path>
            </g>
        </g>
    </g>
</svg>