<?xml version="1.0" encoding="UTF-8"?>
<svg width="992px" height="693px" viewBox="0 0 992 693" version="1.1" xmlns="http://www.w3.org/2000/svg" xmlns:xlink="http://www.w3.org/1999/xlink">
    <title>logo_des_element@3x</title>
    <g id="Page-1" stroke="none" stroke-width="1" fill="none" fill-rule="evenodd" opacity="0.654622396">
        <g id="logo_des_element" transform="translate(1.000000, 1.000000)" stroke="#979797">
            <path d="M496.318118,684.299864 C496.318118,666.084612 496.320737,647.869361 496.315498,629.654109 C496.310259,607.068971 496.286683,584.486442 496.289303,561.901303 C496.289303,551.410967 496.428138,551.26487 506.796259,551.262261 C597.969188,551.254434 689.142117,551.382269 780.315046,551.191821 C819.482339,551.113554 849.963252,520.276505 849.630571,482.071958 C849.308368,444.772695 817.72463,414.79397 781.179492,414.702659 C711.164551,414.527864 641.149609,414.632219 571.137287,414.624393 C548.886954,414.624393 526.63662,414.454815 504.394145,414.757446 C498.028674,414.843539 496.158326,412.581634 496.18976,406.429877 C496.388845,365.603399 496.396704,324.77692 496.166185,283.95305 C496.132131,277.704765 497.936991,275.954201 504.346994,275.972463 C580.685494,276.212481 657.026613,276.19161 733.365113,276.092472 C757.747748,276.058557 778.588772,268.017966 793.897337,248.208684 C811.940696,224.866968 812.137161,189.845264 793.53846,166.38354 C778.37135,147.257786 758.523131,139.045009 734.164071,139.355466 C695.614989,139.848546 657.055428,139.485911 618.503726,139.485911 C581.259172,139.485911 544.011998,139.48852 506.767444,139.483302 C496.401943,139.483302 496.294542,139.378946 496.291922,128.849477 C496.286683,89.1082953 496.278825,49.3697226 496.299781,9.62854104 C496.30764,0.18436869 496.365269,0.145235379 505.753684,0.147844267 C585.363984,0.153062042 664.984762,-0.321755463 744.587203,0.403515231 C782.816702,0.750497254 818.308787,11.8382687 850.793645,32.5006568 C875.257486,48.0574523 895.658427,67.52497 911.965035,91.3049785 C937.505505,128.549455 949.220067,169.910756 947.787181,214.835796 C946.697455,249.06179 937.36667,281.192847 920.460188,311.025474 C914.147108,322.162815 913.955882,321.917579 923.069246,330.699094 C970.611193,376.50333 993.545225,432.161334 989.555673,498.116616 C987.567446,530.941637 977.212422,561.403006 960.214257,589.644212 C940.331984,622.672726 913.041664,648.044156 879.163213,666.155052 C853.549396,679.849102 826.151676,688.510608 796.823358,689.507203 C714.412775,692.30654 631.970757,690.227256 549.541837,690.657723 C482.583894,691.007314 415.618091,690.63946 348.657528,690.855998 C341.71052,690.879478 337.503546,689.011515 334.38368,682.486687 C320.801389,654.08373 306.781635,625.892093 292.850946,597.656105 C284.106937,579.931324 275.161224,562.303072 266.44603,544.562638 C252.944944,517.080618 239.679617,489.483807 226.099946,462.040921 C208.09064,425.649551 189.756512,389.417323 171.778641,353.010299 C158.031319,325.170862 144.716221,297.122713 131.039626,269.249361 C116.603367,239.831546 101.915632,210.53635 87.4296015,181.142016 C75.4321294,156.795879 63.6468398,132.342777 51.6231724,108.007076 C39.7959701,84.0627071 27.7461074,60.2279119 15.8743731,36.3044146 C10.7584205,25.9940916 5.89394328,15.561151 0.809425115,5.23517467 C-0.825164961,1.91406103 -0.0419238825,0.30437751 3.6882945,0.220893114 C5.65294603,0.176542028 7.61497803,0.142626492 9.57701003,0.142626492 C56.0370895,0.142626492 102.497169,0.239155325 148.957248,0.0278354469 C154.733324,0 158.214686,1.66621673 160.711104,6.93616925 C168.525178,23.4165109 176.671933,39.7403193 184.740102,56.0980432 C197.418653,81.8008018 210.17841,107.464427 222.838624,133.175012 C246.728787,181.689882 270.545603,230.238667 294.448863,278.745711 C307.216478,304.654571 320.17532,330.472121 332.908881,356.396635 C346.698115,384.470872 360.209679,412.680771 374.046065,440.731529 C393.35466,479.872666 412.91997,518.891186 432.239043,558.027106 C444.543001,582.955025 456.089913,608.26645 468.946592,632.904783 C477.86611,650.003431 485.041018,667.976056 496.318118,684.299864" id="Fill-1"></path>
        </g>
    </g>
</svg>