<?xml version="1.0" encoding="UTF-8"?>
<svg width="98px" height="11px" viewBox="0 0 98 11" version="1.1" xmlns="http://www.w3.org/2000/svg" xmlns:xlink="http://www.w3.org/1999/xlink">
    <title>1C117577-C9CD-45F0-A860-A73000B2F3CA@3x</title>
    <g id="Page-1" stroke="none" stroke-width="1" fill="none" fill-rule="evenodd">
        <g id="01---main-landing" transform="translate(-1282.000000, -44.000000)">
            <g id="menu" transform="translate(1282.000000, 45.000000)">
                <g id="ic_menu" transform="translate(70.000000, 0.000000)" stroke="#000000" stroke-linecap="round" stroke-linejoin="round" stroke-width="2">
                    <g id="Group-3" transform="translate(13.500000, 4.500000) scale(-1, 1) translate(-13.500000, -4.500000) ">
                        <line x1="7.81597009e-14" y1="8.5" x2="27" y2="8.5" id="Path"></line>
                        <line x1="0" y1="0.5" x2="27" y2="0.5" id="Path"></line>
                    </g>
                </g>
                <path d="M1.88287734,9.85074627 L1.88287734,4.71641791 L1.77743621,1.8358209 L1.80756225,1.8358209 L4.54903166,9.85074627 L6.25115278,9.85074627 L9.00768521,1.8358209 L9.03781125,1.8358209 L8.94743314,4.71641791 L8.94743314,9.85074627 L10.8152475,9.85074627 L10.8152475,0 L7.89302183,0 L6.11558561,5.3880597 L5.46787581,7.59701493 L5.43774977,7.59701493 L4.80510298,5.37313433 L3.01260375,0 L0,0 L0,9.85074627 L1.88287734,9.85074627 Z M23.282406,9.85074627 L23.282406,8.19402985 L17.694026,8.19402985 L17.694026,5.68656716 L21.9267343,5.68656716 L21.9267343,4.10447761 L17.694026,4.10447761 L17.694026,1.65671642 L23.0715237,1.65671642 L23.0715237,0 L15.6153294,0 L15.6153294,9.85074627 L23.282406,9.85074627 Z M29.2272774,9.85074627 L29.2272774,4.14925373 L29.1670253,2.44776119 L29.1820883,2.44776119 L30.0406804,4.05970149 L33.5202377,9.85074627 L35.9001947,9.85074627 L35.9001947,0 L34.0323804,0 L34.0323804,5.70149254 L34.0926324,7.40298507 L34.0625064,7.40298507 L33.2039143,5.7761194 L29.724357,0 L27.3594631,0 L27.3594631,9.85074627 L29.2272774,9.85074627 Z M44.7522287,10 C46.1380264,10 47.1924377,9.6641791 47.9154626,8.99253731 C48.6384875,8.32089552 49,7.31343284 49,5.97014925 L49,5.97014925 L49,0 L46.9062404,0 L46.9062404,5.88059701 C46.9062404,6.70646766 46.7305052,7.31840796 46.3790347,7.71641791 C46.0275643,8.11442786 45.4852956,8.31343284 44.7522287,8.31343284 C44.0191618,8.31343284 43.4743826,8.11442786 43.1178912,7.71641791 C42.7613997,7.31840796 42.583154,6.70646766 42.583154,5.88059701 L42.583154,5.88059701 L42.583154,0 L40.5044574,0 L40.5044574,5.97014925 C40.5044574,7.31343284 40.8659699,8.32089552 41.5889948,8.99253731 C42.3120197,9.6641791 43.366431,10 44.7522287,10 Z" id="MENU" fill="#000000" fill-rule="nonzero"></path>
            </g>
        </g>
    </g>
</svg>