<?xml version="1.0" encoding="UTF-8"?>
<svg width="8px" height="18px" viewBox="0 0 8 18" version="1.1" xmlns="http://www.w3.org/2000/svg" xmlns:xlink="http://www.w3.org/1999/xlink">
    <title>ic_facebook@3x</title>
    <g id="Page-1" stroke="none" stroke-width="1" fill="none" fill-rule="evenodd">
        <g id="00---menu" transform="translate(-1368.000000, -279.000000)" fill="#000000" fill-rule="nonzero">
            <g id="social-icons" transform="translate(1363.000000, 279.000000)">
                <g id="ic_facebook" transform="translate(5.000000, 0.000000)">
                    <path d="M8,5.82848272 L5.27548111,5.82848272 L5.27548111,3.96029807 C5.27548111,3.2587042 5.72024234,3.09513558 6.03349964,3.09513558 C6.34604419,3.09513558 7.95616536,3.09513558 7.95616536,3.09513558 L7.95616536,0.0108052163 L5.308268,0 C2.36885246,0 1.69992872,2.30039329 1.69992872,3.77251087 L1.69992872,5.82848272 L0,5.82848272 L0,9.00670669 L1.69992872,9.00670669 C1.69992872,13.0854895 1.69992872,18 1.69992872,18 L5.27548111,18 C5.27548111,18 5.27548111,13.0370524 5.27548111,9.00670669 L7.68816821,9.00670669 L8,5.82848272 Z"></path>
                </g>
            </g>
        </g>
    </g>
</svg>