<?xml version="1.0" encoding="UTF-8"?>
<svg width="43px" height="30px" viewBox="0 0 43 30" version="1.1" xmlns="http://www.w3.org/2000/svg" xmlns:xlink="http://www.w3.org/1999/xlink">
    <title>ic_logo@3x</title>
    <g id="Page-1" stroke="none" stroke-width="1" fill="none" fill-rule="evenodd">
        <g id="00---menu" transform="translate(-60.000000, -33.000000)" fill="#231F20">
            <g id="ic_logo" transform="translate(60.000000, 33.000000)">
                <path d="M21.5572516,29.7091113 C21.5572516,28.91829 21.5573654,28.1274686 21.5571378,27.3366473 C21.5569102,26.3561058 21.5558862,25.3756776 21.556,24.3951362 C21.556,23.9396947 21.5620302,23.9333518 22.0123628,23.9332385 C25.9723991,23.9328987 29.9324354,23.9384487 33.8924717,23.9301803 C35.5936773,23.9267824 36.9175958,22.5879814 36.903146,20.929318 C36.8891514,19.3099578 35.5173324,18.0084213 33.9300184,18.004457 C30.8889653,17.9968682 27.8479123,18.0013988 24.8069731,18.001059 C23.8405445,18.001059 22.8741158,17.9936967 21.9080285,18.0068356 C21.6315485,18.0105733 21.5503111,17.9123719 21.5516765,17.6452913 C21.5603236,15.8727959 21.5606649,14.1003004 21.5506525,12.3279182 C21.5491734,12.0566468 21.6275663,11.9806455 21.9059805,11.9814384 C25.2216932,11.9918588 28.5375196,11.9909527 31.8532322,11.9866486 C32.9122759,11.9851761 33.8174921,11.6360911 34.4824096,10.7760644 C35.266111,9.76267591 35.2746444,8.2421967 34.466822,7.22359796 C33.8080486,6.39324687 32.9459542,6.03668635 31.8879344,6.05016497 C30.2135803,6.07157219 28.5387711,6.05582825 26.8643032,6.05582825 C25.2466105,6.05582825 23.628804,6.05594152 22.0111112,6.05571499 C21.5608925,6.05571499 21.5562276,6.05118436 21.5561138,5.59404386 C21.5558862,3.86866695 21.5555449,2.1434033 21.5564551,0.418026384 C21.5567965,0.00800442939 21.5592996,0.00630544339 21.9670792,0.00641870912 C25.4249003,0.00664524059 28.8831765,-0.0139691229 32.3406563,0.017518751 C34.0011295,0.0325830935 35.5427049,0.51396246 36.9536634,1.41102707 C38.0162342,2.08643063 38.9023357,2.93161954 39.6106025,3.96403669 C40.7199361,5.5810183 41.2287504,7.37673324 41.1665139,9.32716916 C41.1191824,10.8131023 40.7139059,12.2080831 39.9795839,13.5032767 C39.7053794,13.9868082 39.6970737,13.9761612 40.0929066,14.3574136 C42.1578599,16.3460201 43.1539845,18.7624313 42.9807009,21.6259023 C42.8943436,23.0510117 42.44458,24.3735024 41.7062758,25.599604 C40.8427023,27.0335482 39.6573652,28.1350574 38.1858769,28.9213481 C37.0733576,29.51588 35.8833556,29.8919222 34.6094994,29.9351897 C31.0300498,30.0567239 27.4492349,29.9664511 23.8689889,29.9851399 C20.9607146,30.0003175 18.0520989,29.9843471 15.1437108,29.9937481 C14.8419721,29.9947675 14.6592449,29.9136692 14.5237356,29.6303916 C13.9337977,28.3972676 13.3248589,27.1733181 12.7197886,25.9474431 C12.3399983,25.1779157 11.9514471,24.4125791 11.5729084,23.6423721 C10.9864976,22.4492309 10.4103268,21.251106 9.82050269,20.0596637 C9.03828032,18.47972 8.24194951,16.9066855 7.46109247,15.3260622 C6.86398658,14.1174036 6.28565403,12.8996837 5.69162014,11.6895526 C5.06459069,10.4123682 4.42663857,9.14050723 3.79744734,7.86434222 C3.27634502,6.80734639 2.7644587,5.74570668 2.2422186,4.68916392 C1.72851183,3.64961102 1.20513396,2.61481528 0.689492972,1.57616851 C0.46728493,1.12854233 0.255999557,0.675592661 0.0351568484,0.227286889 C-0.0358404983,0.0830996105 -0.00182093631,0.0132146531 0.16019865,0.00959014965 C0.245531999,0.00766463219 0.330751571,0.00619217766 0.415971143,0.00619217766 C2.43393419,0.00619217766 4.45189724,0.0103830098 6.46986028,0.00120848539 C6.72074033,0 6.87195103,0.0723393659 6.98038127,0.301136147 C7.31978044,1.01663578 7.6736294,1.72533948 8.02406502,2.43551562 C8.57474957,3.55140963 9.12896123,4.66560465 9.67884933,5.78183845 C10.7165029,7.88812802 11.7509706,9.99589005 12.789193,12.1018398 C13.343746,13.2266818 13.9066048,14.3475595 14.4596787,15.4730811 C15.058605,16.6919337 15.6454709,17.916676 16.2464452,19.1345092 C17.0851014,20.833835 17.9349078,22.5278373 18.774019,24.2269366 C19.3084334,25.3091907 19.8099659,26.4080948 20.3683874,27.4777764 C20.7558008,28.22012 21.0674381,29.0004076 21.5572516,29.7091113"></path>
            </g>
        </g>
    </g>
</svg>