<?xml version="1.0" encoding="UTF-8"?>
<svg width="17px" height="18px" viewBox="0 0 17 18" version="1.1" xmlns="http://www.w3.org/2000/svg" xmlns:xlink="http://www.w3.org/1999/xlink">
    <title>ic_instagram@3x</title>
    <g id="Page-1" stroke="none" stroke-width="1" fill="none" fill-rule="evenodd">
        <g id="00---menu" transform="translate(-1364.000000, -357.000000)" fill="#000000" fill-rule="nonzero">
            <g id="social-icons" transform="translate(1363.000000, 279.000000)">
                <g id="Group-11" transform="translate(1.000000, 78.000000)">
                    <path d="M16.553323,3.10200927 C16.3365533,2.51081917 16.047527,2.01004637 15.574575,1.50927357 C15.1016229,1.00850077 14.6286708,0.702472952 14.0703246,0.472952087 C13.5316847,0.250386399 12.9076507,0.0973724884 12.007728,0.0556414219 C11.1012365,0.0139103555 10.8122102,0 8.5,0 C6.1877898,0 5.89876352,0.00695517774 4.99227202,0.0556414219 C4.08578053,0.0973724884 3.4683153,0.250386399 2.92967543,0.472952087 C2.37132921,0.702472952 1.89837713,1.00850077 1.42542504,1.50927357 C0.952472952,2.01004637 0.663446677,2.51081917 0.446676971,3.10200927 C0.236476043,3.67233385 0.0919629057,4.33307573 0.0525502318,5.28593509 C0.013137558,6.24574961 0,6.55177743 0,9 C0,11.4482226 0.00656877898,11.7542504 0.0525502318,12.7140649 C0.0919629057,13.6738794 0.236476043,14.3276662 0.446676971,14.8979907 C0.663446677,15.4891808 0.952472952,15.9899536 1.42542504,16.4907264 C1.89837713,16.9914992 2.37132921,17.297527 2.92967543,17.5270479 C3.4683153,17.7496136 4.0923493,17.9026275 4.99227202,17.9443586 C5.89876352,17.9860896 6.1877898,18 8.5,18 C10.8122102,18 11.1012365,17.9930448 12.007728,17.9443586 C12.9142195,17.9026275 13.5316847,17.7496136 14.0703246,17.5270479 C14.6286708,17.297527 15.1016229,16.9914992 15.574575,16.4907264 C16.047527,15.9899536 16.3365533,15.4891808 16.553323,14.8979907 C16.763524,14.3276662 16.9080371,13.6669243 16.9474498,12.7140649 C16.9868624,11.7542504 17,11.4482226 17,9 C17,6.55177743 16.9934312,6.24574961 16.9474498,5.28593509 C16.9080371,4.32612056 16.763524,3.67233385 16.553323,3.10200927 Z M15.4169243,12.637558 C15.3775116,13.5139104 15.2395672,13.9938176 15.1213292,14.3068006 C14.9702473,14.7241113 14.7797527,15.0301391 14.4841577,15.3431221 C14.1885626,15.6561051 13.9061051,15.8508501 13.5054096,16.0177743 C13.2032457,16.1429675 12.7565688,16.2890263 11.9289026,16.3307573 C11.0289799,16.3724884 10.7662287,16.3863988 8.49343122,16.3863988 C6.22063369,16.3863988 5.95131376,16.3794436 5.05795981,16.3307573 C4.23029366,16.2890263 3.77704791,16.1429675 3.48145286,16.0177743 C3.08732612,15.8578053 2.79829985,15.6561051 2.50270479,15.3431221 C2.20710974,15.0301391 2.02318393,14.7310665 1.86553323,14.3068006 C1.74729521,13.9868624 1.60935085,13.5139104 1.56993818,12.637558 C1.5305255,11.6846986 1.51738794,11.3995363 1.51738794,9 C1.51738794,6.60046368 1.52395672,6.30834621 1.56993818,5.36244204 C1.60935085,4.48608964 1.74729521,4.00618238 1.86553323,3.69319938 C2.01661515,3.27588872 2.20710974,2.9698609 2.50270479,2.6568779 C2.79829985,2.3438949 3.08075734,2.14914992 3.48145286,1.98222566 C3.78361669,1.85703246 4.23029366,1.71097372 5.05795981,1.66924266 C5.95788253,1.62751159 6.22720247,1.61360124 8.49343122,1.61360124 C10.75966,1.61360124 11.0355487,1.62055641 11.9289026,1.66924266 C12.7565688,1.71097372 13.2098145,1.85703246 13.5054096,1.98222566 C13.8995363,2.14219474 14.1885626,2.3438949 14.4841577,2.6568779 C14.7797527,2.9698609 14.9636785,3.26893354 15.1213292,3.69319938 C15.2395672,4.01313756 15.3775116,4.48608964 15.4169243,5.36244204 C15.4563369,6.31530139 15.4694745,6.60046368 15.4694745,9 C15.4694745,11.3995363 15.4563369,11.6916538 15.4169243,12.637558 Z" id="XMLID_142_"></path>
                    <path d="M8.5,5 C6.01654135,5 4,7.01654135 4,9.5 C4,11.9834586 6.01654135,14 8.5,14 C10.9834586,14 13,11.9834586 13,9.5 C13,7.01654135 10.9834586,5 8.5,5 Z M8.5,12.4233083 C6.88947368,12.4233083 5.57669173,11.1172932 5.57669173,9.5 C5.57669173,7.88947368 6.88270677,6.57669173 8.5,6.57669173 C10.1172932,6.57669173 11.4233083,7.88270677 11.4233083,9.5 C11.4233083,11.1105263 10.1105263,12.4233083 8.5,12.4233083 Z" id="XMLID_145_"></path>
                    <circle id="XMLID_143_" cx="13" cy="4" r="1"></circle>
                </g>
            </g>
        </g>
    </g>
</svg>