<?xml version="1.0" encoding="UTF-8"?>
<svg width="18px" height="13px" viewBox="0 0 18 13" version="1.1" xmlns="http://www.w3.org/2000/svg" xmlns:xlink="http://www.w3.org/1999/xlink">
    <title>ic_youtube@3x</title>
    <g id="Page-1" stroke="none" stroke-width="1" fill="none" fill-rule="evenodd">
        <g id="00---menu" transform="translate(-1363.000000, -509.000000)" fill="#000000">
            <g id="social-icons" transform="translate(1363.000000, 279.000000)">
                <g id="ic_youtube" transform="translate(0.000000, 230.000000)">
                    <path d="M15.7427997,0.258576556 C16.6852784,0.367467157 17.4683718,1.09910961 17.6884555,2.0911055 C18.001858,3.50390284 18,5.04570017 18,6.50021396 C18,7.95451372 17.9981418,9.49609716 17.6849457,10.9088945 C17.4646555,11.9008904 16.6815621,12.6323189 15.7392899,12.7414234 C13.7862791,12.967548 11.8125612,12.9967964 9.84275559,12.9997153 L8.99886446,12.9998515 C6.74971606,13.0011352 4.49045133,12.9998515 2.25864541,12.7414234 C1.3161668,12.6323189 0.53348623,11.9008904 0.313402553,10.9088945 C0.0348225059,9.65307464 0.00386916732,8.29549787 0.00042990748,6.98791689 L0,6.50021396 C0,5.04570017 0.00371623872,3.50390284 0.316912301,2.0911055 C0.537202469,1.09910961 1.31988296,0.367467157 2.26215516,0.258576556 C4.21516602,0.0324519937 6.1888839,0.00320364012 8.15868957,0.000284683376 L9.0025807,0.000148484777 C11.251729,-0.00113515052 13.5109938,0.000148484777 15.7427997,0.258576556 Z M7.37993232,3.8235294 L7.37993232,9.78382188 L12.3613866,6.80367564 L7.37993232,3.8235294 Z"></path>
                </g>
            </g>
        </g>
    </g>
</svg>