<?xml version="1.0" encoding="UTF-8"?>
<svg width="17px" height="14px" viewBox="0 0 17 14" version="1.1" xmlns="http://www.w3.org/2000/svg" xmlns:xlink="http://www.w3.org/1999/xlink">
    <title>ic_twitter@3x</title>
    <g id="Page-1" stroke="none" stroke-width="1" fill="none" fill-rule="evenodd">
        <g id="00---menu" transform="translate(-1364.000000, -435.000000)" fill="#000000">
            <g id="social-icons" transform="translate(1363.000000, 279.000000)">
                <g id="ic_twitter" transform="translate(1.000000, 156.000000)">
                    <path d="M17,1.65724134 C16.3750482,1.93875206 15.7024745,2.12864066 14.9967724,2.21361842 C15.7173132,1.77648998 16.2697968,1.08407853 16.5303372,0.258080631 C15.8563831,0.663386122 15.1103059,0.957486137 14.3155715,1.11625119 C13.679577,0.42943498 12.7730345,0 11.7698679,0 C9.84393967,0 8.28242291,1.58240496 8.28242291,3.53444572 C8.28242291,3.8110606 8.31313562,4.08068142 8.3728356,4.33981116 C5.47410836,4.1922366 2.90390354,2.78538242 1.18364696,0.646950092 C0.883421635,1.1687066 0.71156852,1.77579058 0.71156852,2.42413948 C0.71156852,3.65019733 1.32720297,4.73217765 2.26307777,5.36583904 C1.6916144,5.34730479 1.15362442,5.18819004 0.683271421,4.92346505 C0.682926334,4.93815257 0.682926334,4.95318979 0.682926334,4.96822701 C0.682926334,6.68037168 1.88520797,8.10855773 3.48088829,8.43378129 C3.18825488,8.51421292 2.88009256,8.55757606 2.56192274,8.55757606 C2.33692629,8.55757606 2.11848649,8.53554479 1.90556807,8.49393016 C2.3496945,9.89798671 3.6375576,10.9201679 5.16353044,10.9484938 C3.96987597,11.8965379 2.46633376,12.4616576 0.832003735,12.4616576 C0.550758176,12.4616576 0.272963482,12.4448719 0,12.4119998 C1.54391734,13.415297 3.37701723,14 5.34642632,14 C11.7619309,14 15.2697359,8.61457761 15.2697359,3.94394764 C15.2697359,3.79077784 15.2666301,3.63795774 15.2600735,3.48618674 C15.9412744,2.98890943 16.5327528,2.36608882 17,1.65724134 Z"></path>
                </g>
            </g>
        </g>
    </g>
</svg>